<svg width="171" height="216" viewBox="0 0 171 216" fill="none" xmlns="http://www.w3.org/2000/svg">
<g clip-path="url(#clip0_2002_2)">
<path d="M169.88 0.480011H0.47998V214.91H169.88V0.480011Z" fill="white" stroke="#BABABA" stroke-width="0.95" stroke-miterlimit="10"/>
<path d="M105.66 72.17C97.29 72.17 88.7699 71.83 80.7999 69.61C72.9799 67.44 65.7999 63.23 59.3999 58.36C55.2099 55.19 51.3999 52.67 45.9599 53.05C40.6369 53.3331 35.5462 55.321 31.4399 58.72C24.5199 64.78 25.5599 76 28.3299 83.87C32.4899 95.74 45.1499 104 55.9099 109.36C68.3399 115.57 81.9999 119.17 95.6899 121.25C107.69 123.07 123.11 124.4 133.51 116.56C143.06 109.36 145.68 92.92 143.34 81.82C142.773 78.5379 141.027 75.5758 138.43 73.49C131.72 68.59 121.71 71.86 114.17 72.03C111.37 72.09 108.52 72.15 105.66 72.17Z" fill="#F2F2F2"/>
<path d="M85.18 140.7C105.454 140.7 121.89 139.675 121.89 138.41C121.89 137.145 105.454 136.12 85.18 136.12C64.9056 136.12 48.47 137.145 48.47 138.41C48.47 139.675 64.9056 140.7 85.18 140.7Z" fill="#F2F2F2"/>
<path d="M130.99 40.98C131.531 40.98 131.97 40.5412 131.97 40C131.97 39.4587 131.531 39.02 130.99 39.02C130.449 39.02 130.01 39.4587 130.01 40C130.01 40.5412 130.449 40.98 130.99 40.98Z" fill="#CFCFCF"/>
<path d="M65.8001 32.77C66.3413 32.77 66.7801 32.3312 66.7801 31.79C66.7801 31.2488 66.3413 30.81 65.8001 30.81C65.2588 30.81 64.8201 31.2488 64.8201 31.79C64.8201 32.3312 65.2588 32.77 65.8001 32.77Z" fill="#CFCFCF"/>
<path d="M77.6499 126.08C78.1912 126.08 78.6299 125.641 78.6299 125.1C78.6299 124.559 78.1912 124.12 77.6499 124.12C77.1087 124.12 76.6699 124.559 76.6699 125.1C76.6699 125.641 77.1087 126.08 77.6499 126.08Z" fill="#CFCFCF"/>
<path d="M103.81 28.11V32.41" stroke="#BABABA" stroke-linecap="round" stroke-linejoin="round"/>
<path d="M101.66 30.26H105.96" stroke="#BABABA" stroke-linecap="round" stroke-linejoin="round"/>
<path d="M33.75 46.21V50.51" stroke="#BABABA" stroke-linecap="round" stroke-linejoin="round"/>
<path d="M31.5901 48.36H35.9001" stroke="#BABABA" stroke-linecap="round" stroke-linejoin="round"/>
<path d="M36.99 106.12V110.43" stroke="#BABABA" stroke-linecap="round" stroke-linejoin="round"/>
<path d="M34.8301 108.27H39.1401" stroke="#BABABA" stroke-linecap="round" stroke-linejoin="round"/>
<path d="M125.84 62.03V66.33" stroke="#BABABA" stroke-linecap="round" stroke-linejoin="round"/>
<path d="M123.69 64.18H127.99" stroke="#BABABA" stroke-linecap="round" stroke-linejoin="round"/>
<path d="M95.8694 36.9425L45.6764 43.5335C42.4232 43.9607 40.1322 46.9443 40.5594 50.1975L48.2099 108.459C48.6371 111.712 51.6207 114.003 54.8739 113.576L105.067 106.985C108.32 106.558 110.611 103.574 110.184 100.321L102.533 42.0595C102.106 38.8063 99.1226 36.5153 95.8694 36.9425Z" fill="#D2D2D2"/>
<path d="M110.49 45.49H59.7901C56.504 45.49 53.8401 48.1539 53.8401 51.44V110.29C53.8401 113.576 56.504 116.24 59.7901 116.24H110.49C113.776 116.24 116.44 113.576 116.44 110.29V51.44C116.44 48.1539 113.776 45.49 110.49 45.49Z" fill="white" stroke="#BABABA" stroke-linecap="round" stroke-linejoin="round"/>
<path d="M61.4099 92.05L71.5499 75.52C71.6497 75.2785 71.8189 75.0721 72.036 74.9268C72.2532 74.7815 72.5086 74.704 72.7699 74.704C73.0312 74.704 73.2866 74.7815 73.5038 74.9268C73.721 75.0721 73.8901 75.2785 73.9899 75.52L79.7399 84.89C79.8376 85.1323 80.0054 85.3398 80.2219 85.486C80.4384 85.6321 80.6937 85.7102 80.9549 85.7102C81.2161 85.7102 81.4714 85.6321 81.6879 85.486C81.9044 85.3398 82.0722 85.1323 82.1699 84.89L92.0099 68.89C92.1076 68.6477 92.2754 68.4402 92.4919 68.294C92.7084 68.1479 92.9637 68.0698 93.2249 68.0698C93.4861 68.0698 93.7414 68.1479 93.9579 68.294C94.1744 68.4402 94.3423 68.6477 94.4399 68.89L108.88 92.42L61.4099 92.05Z" fill="white" stroke="#BABABA" stroke-linecap="round" stroke-linejoin="round"/>
<path d="M81.6299 73.3C83.3917 73.3 84.8199 71.8718 84.8199 70.11C84.8199 68.3482 83.3917 66.92 81.6299 66.92C79.8681 66.92 78.4399 68.3482 78.4399 70.11C78.4399 71.8718 79.8681 73.3 81.6299 73.3Z" fill="white" stroke="#BABABA" stroke-linecap="round" stroke-linejoin="round"/>
<path d="M69.87 160.32V167.55H69.18C69.0733 167.55 68.9833 167.533 68.91 167.5C68.84 167.463 68.7716 167.403 68.705 167.32L64.93 162.5C64.95 162.72 64.96 162.923 64.96 163.11V167.55H63.775V160.32H64.48C64.5366 160.32 64.585 160.323 64.625 160.33C64.6683 160.333 64.705 160.343 64.735 160.36C64.7683 160.373 64.8 160.395 64.83 160.425C64.86 160.452 64.8933 160.488 64.93 160.535L68.72 165.375C68.71 165.258 68.7016 165.143 68.695 165.03C68.6883 164.917 68.685 164.812 68.685 164.715V160.32H69.87ZM73.3988 162.34C73.7788 162.34 74.1238 162.402 74.4338 162.525C74.7471 162.648 75.0138 162.823 75.2338 163.05C75.4571 163.277 75.6288 163.553 75.7488 163.88C75.8688 164.207 75.9288 164.572 75.9288 164.975C75.9288 165.382 75.8688 165.748 75.7488 166.075C75.6288 166.402 75.4571 166.68 75.2338 166.91C75.0138 167.14 74.7471 167.317 74.4338 167.44C74.1238 167.563 73.7788 167.625 73.3988 167.625C73.0155 167.625 72.6671 167.563 72.3538 167.44C72.0405 167.317 71.7721 167.14 71.5488 166.91C71.3288 166.68 71.1571 166.402 71.0338 166.075C70.9138 165.748 70.8538 165.382 70.8538 164.975C70.8538 164.572 70.9138 164.207 71.0338 163.88C71.1571 163.553 71.3288 163.277 71.5488 163.05C71.7721 162.823 72.0405 162.648 72.3538 162.525C72.6671 162.402 73.0155 162.34 73.3988 162.34ZM73.3988 166.675C73.8255 166.675 74.1405 166.532 74.3438 166.245C74.5505 165.958 74.6538 165.538 74.6538 164.985C74.6538 164.432 74.5505 164.01 74.3438 163.72C74.1405 163.43 73.8255 163.285 73.3988 163.285C72.9655 163.285 72.6438 163.432 72.4338 163.725C72.2271 164.015 72.1238 164.435 72.1238 164.985C72.1238 165.535 72.2271 165.955 72.4338 166.245C72.6438 166.532 72.9655 166.675 73.3988 166.675ZM87.3376 160.32V167.55H86.1526V162.88C86.1526 162.693 86.1626 162.492 86.1826 162.275L83.9976 166.38C83.8943 166.577 83.736 166.675 83.5226 166.675H83.3326C83.1193 166.675 82.961 166.577 82.8576 166.38L80.6476 162.26C80.6576 162.37 80.666 162.478 80.6726 162.585C80.6793 162.692 80.6826 162.79 80.6826 162.88V167.55H79.4976V160.32H80.5126C80.5726 160.32 80.6243 160.322 80.6676 160.325C80.711 160.328 80.7493 160.337 80.7826 160.35C80.8193 160.363 80.851 160.385 80.8776 160.415C80.9076 160.445 80.936 160.485 80.9626 160.535L83.1276 164.55C83.1843 164.657 83.236 164.767 83.2826 164.88C83.3326 164.993 83.381 165.11 83.4276 165.23C83.4743 165.107 83.5226 164.988 83.5726 164.875C83.6226 164.758 83.676 164.647 83.7326 164.54L85.8676 160.535C85.8943 160.485 85.9226 160.445 85.9526 160.415C85.9826 160.385 86.0143 160.363 86.0476 160.35C86.0843 160.337 86.1243 160.328 86.1676 160.325C86.211 160.322 86.2626 160.32 86.3226 160.32H87.3376ZM91.9045 164.395C91.9045 164.235 91.8812 164.085 91.8345 163.945C91.7912 163.802 91.7245 163.677 91.6345 163.57C91.5445 163.463 91.4295 163.38 91.2895 163.32C91.1528 163.257 90.9928 163.225 90.8095 163.225C90.4528 163.225 90.1712 163.327 89.9645 163.53C89.7612 163.733 89.6312 164.022 89.5745 164.395H91.9045ZM89.5495 165.14C89.5695 165.403 89.6162 165.632 89.6895 165.825C89.7628 166.015 89.8595 166.173 89.9795 166.3C90.0995 166.423 90.2412 166.517 90.4045 166.58C90.5712 166.64 90.7545 166.67 90.9545 166.67C91.1545 166.67 91.3262 166.647 91.4695 166.6C91.6162 166.553 91.7428 166.502 91.8495 166.445C91.9595 166.388 92.0545 166.337 92.1345 166.29C92.2178 166.243 92.2978 166.22 92.3745 166.22C92.4778 166.22 92.5545 166.258 92.6045 166.335L92.9595 166.785C92.8228 166.945 92.6695 167.08 92.4995 167.19C92.3295 167.297 92.1512 167.383 91.9645 167.45C91.7812 167.513 91.5928 167.558 91.3995 167.585C91.2095 167.612 91.0245 167.625 90.8445 167.625C90.4878 167.625 90.1562 167.567 89.8495 167.45C89.5428 167.33 89.2762 167.155 89.0495 166.925C88.8228 166.692 88.6445 166.405 88.5145 166.065C88.3845 165.722 88.3195 165.325 88.3195 164.875C88.3195 164.525 88.3762 164.197 88.4895 163.89C88.6028 163.58 88.7645 163.312 88.9745 163.085C89.1878 162.855 89.4462 162.673 89.7495 162.54C90.0562 162.407 90.4012 162.34 90.7845 162.34C91.1078 162.34 91.4062 162.392 91.6795 162.495C91.9528 162.598 92.1878 162.75 92.3845 162.95C92.5812 163.147 92.7345 163.39 92.8445 163.68C92.9578 163.967 93.0145 164.295 93.0145 164.665C93.0145 164.852 92.9945 164.978 92.9545 165.045C92.9145 165.108 92.8378 165.14 92.7245 165.14H89.5495ZM97.1613 163.73C97.0213 163.56 96.868 163.44 96.7013 163.37C96.538 163.3 96.3613 163.265 96.1713 163.265C95.9846 163.265 95.8163 163.3 95.6663 163.37C95.5163 163.44 95.388 163.547 95.2813 163.69C95.1746 163.83 95.093 164.01 95.0363 164.23C94.9796 164.447 94.9513 164.703 94.9513 165C94.9513 165.3 94.9746 165.555 95.0213 165.765C95.0713 165.972 95.1413 166.142 95.2313 166.275C95.3213 166.405 95.4313 166.5 95.5613 166.56C95.6913 166.617 95.8363 166.645 95.9963 166.645C96.253 166.645 96.4713 166.592 96.6513 166.485C96.8313 166.378 97.0013 166.227 97.1613 166.03V163.73ZM98.3963 160.12V167.55H97.6413C97.478 167.55 97.3746 167.475 97.3313 167.325L97.2263 166.83C97.0196 167.067 96.7813 167.258 96.5113 167.405C96.2446 167.552 95.933 167.625 95.5763 167.625C95.2963 167.625 95.0396 167.567 94.8063 167.45C94.573 167.333 94.3713 167.165 94.2013 166.945C94.0346 166.722 93.9046 166.447 93.8113 166.12C93.7213 165.793 93.6763 165.42 93.6763 165C93.6763 164.62 93.728 164.267 93.8313 163.94C93.9346 163.613 94.083 163.33 94.2763 163.09C94.4696 162.85 94.7013 162.663 94.9713 162.53C95.2413 162.393 95.5446 162.325 95.8813 162.325C96.168 162.325 96.413 162.37 96.6163 162.46C96.8196 162.55 97.0013 162.672 97.1613 162.825V160.12H98.3963ZM100.895 162.42V167.55H99.6551V162.42H100.895ZM101.065 160.925C101.065 161.032 101.043 161.132 101 161.225C100.957 161.318 100.898 161.4 100.825 161.47C100.755 161.54 100.672 161.597 100.575 161.64C100.478 161.68 100.375 161.7 100.265 161.7C100.158 161.7 100.057 161.68 99.9601 161.64C99.8668 161.597 99.7851 161.54 99.7151 161.47C99.6451 161.4 99.5885 161.318 99.5451 161.225C99.5051 161.132 99.4851 161.032 99.4851 160.925C99.4851 160.815 99.5051 160.712 99.5451 160.615C99.5885 160.518 99.6451 160.435 99.7151 160.365C99.7851 160.295 99.8668 160.24 99.9601 160.2C100.057 160.157 100.158 160.135 100.265 160.135C100.375 160.135 100.478 160.157 100.575 160.2C100.672 160.24 100.755 160.295 100.825 160.365C100.898 160.435 100.957 160.518 101 160.615C101.043 160.712 101.065 160.815 101.065 160.925ZM104.864 165.36C104.508 165.377 104.208 165.408 103.964 165.455C103.721 165.498 103.526 165.555 103.379 165.625C103.233 165.695 103.128 165.777 103.064 165.87C103.001 165.963 102.969 166.065 102.969 166.175C102.969 166.392 103.033 166.547 103.159 166.64C103.289 166.733 103.458 166.78 103.664 166.78C103.918 166.78 104.136 166.735 104.319 166.645C104.506 166.552 104.688 166.412 104.864 166.225V165.36ZM102.034 163.135C102.624 162.595 103.334 162.325 104.164 162.325C104.464 162.325 104.733 162.375 104.969 162.475C105.206 162.572 105.406 162.708 105.569 162.885C105.733 163.058 105.856 163.267 105.939 163.51C106.026 163.753 106.069 164.02 106.069 164.31V167.55H105.509C105.393 167.55 105.303 167.533 105.239 167.5C105.176 167.463 105.126 167.392 105.089 167.285L104.979 166.915C104.849 167.032 104.723 167.135 104.599 167.225C104.476 167.312 104.348 167.385 104.214 167.445C104.081 167.505 103.938 167.55 103.784 167.58C103.634 167.613 103.468 167.63 103.284 167.63C103.068 167.63 102.868 167.602 102.684 167.545C102.501 167.485 102.343 167.397 102.209 167.28C102.076 167.163 101.973 167.018 101.899 166.845C101.826 166.672 101.789 166.47 101.789 166.24C101.789 166.11 101.811 165.982 101.854 165.855C101.898 165.725 101.968 165.602 102.064 165.485C102.164 165.368 102.293 165.258 102.449 165.155C102.606 165.052 102.798 164.962 103.024 164.885C103.254 164.808 103.521 164.747 103.824 164.7C104.128 164.65 104.474 164.62 104.864 164.61V164.31C104.864 163.967 104.791 163.713 104.644 163.55C104.498 163.383 104.286 163.3 104.009 163.3C103.809 163.3 103.643 163.323 103.509 163.37C103.379 163.417 103.264 163.47 103.164 163.53C103.064 163.587 102.973 163.638 102.889 163.685C102.809 163.732 102.719 163.755 102.619 163.755C102.533 163.755 102.459 163.733 102.399 163.69C102.339 163.643 102.291 163.59 102.254 163.53L102.034 163.135Z" fill="#939090"/>
<path d="M46.5589 175.639H47.2648L48.6768 178.016H48.7364L50.1483 175.639H50.8543L49.0148 178.632V180.73H48.3983V178.632L46.5589 175.639ZM52.5832 180.81C52.2385 180.81 51.9361 180.728 51.6759 180.563C51.4173 180.399 51.2152 180.17 51.0693 179.875C50.9252 179.58 50.8531 179.235 50.8531 178.841C50.8531 178.443 50.9252 178.096 51.0693 177.799C51.2152 177.503 51.4173 177.272 51.6759 177.108C51.9361 176.944 52.2385 176.862 52.5832 176.862C52.9279 176.862 53.2295 176.944 53.488 177.108C53.7482 177.272 53.9504 177.503 54.0945 177.799C54.2404 178.096 54.3133 178.443 54.3133 178.841C54.3133 179.235 54.2404 179.58 54.0945 179.875C53.9504 180.17 53.7482 180.399 53.488 180.563C53.2295 180.728 52.9279 180.81 52.5832 180.81ZM52.5832 180.283C52.845 180.283 53.0605 180.215 53.2295 180.081C53.3985 179.947 53.5236 179.77 53.6048 179.552C53.6861 179.333 53.7267 179.096 53.7267 178.841C53.7267 178.586 53.6861 178.348 53.6048 178.127C53.5236 177.907 53.3985 177.729 53.2295 177.593C53.0605 177.457 52.845 177.389 52.5832 177.389C52.3213 177.389 52.1059 177.457 51.9369 177.593C51.7678 177.729 51.6427 177.907 51.5615 178.127C51.4803 178.348 51.4397 178.586 51.4397 178.841C51.4397 179.096 51.4803 179.333 51.5615 179.552C51.6427 179.77 51.7678 179.947 51.9369 180.081C52.1059 180.215 52.3213 180.283 52.5832 180.283ZM57.6151 179.169V176.912H58.2017V180.73H57.6151V180.084H57.5753C57.4858 180.278 57.3466 180.442 57.1577 180.578C56.9688 180.713 56.7301 180.78 56.4418 180.78C56.2031 180.78 55.991 180.728 55.8054 180.623C55.6198 180.517 55.474 180.358 55.3679 180.146C55.2618 179.932 55.2088 179.663 55.2088 179.338V176.912H55.7955V179.298C55.7955 179.577 55.8733 179.799 56.0291 179.964C56.1866 180.13 56.3871 180.213 56.6307 180.213C56.7765 180.213 56.9248 180.176 57.0756 180.101C57.2281 180.027 57.3557 179.912 57.4585 179.758C57.5629 179.604 57.6151 179.408 57.6151 179.169ZM61.8316 178.433V180.73H61.2449V175.639H61.8316V177.508H61.8813C61.9708 177.311 62.105 177.155 62.284 177.039C62.4646 176.921 62.7049 176.862 63.0049 176.862C63.2651 176.862 63.4929 176.914 63.6885 177.019C63.884 177.121 64.0357 177.28 64.1434 177.493C64.2528 177.706 64.3074 177.976 64.3074 178.304V180.73H63.7208V178.344C63.7208 178.04 63.6421 177.806 63.4846 177.64C63.3289 177.473 63.1126 177.389 62.8358 177.389C62.6436 177.389 62.4713 177.43 62.3188 177.511C62.168 177.592 62.0487 177.711 61.9608 177.866C61.8747 178.022 61.8316 178.211 61.8316 178.433ZM66.5043 180.819C66.2623 180.819 66.0427 180.774 65.8455 180.683C65.6483 180.59 65.4917 180.457 65.3757 180.283C65.2597 180.107 65.2017 179.895 65.2017 179.646C65.2017 179.427 65.2448 179.25 65.331 179.114C65.4171 178.977 65.5323 178.869 65.6765 178.791C65.8207 178.713 65.9798 178.655 66.1538 178.617C66.3294 178.577 66.5059 178.546 66.6832 178.523C66.9152 178.493 67.1033 178.47 67.2475 178.455C67.3933 178.439 67.4994 178.412 67.5657 178.373C67.6336 178.335 67.6676 178.269 67.6676 178.175V178.155C67.6676 177.909 67.6005 177.719 67.4663 177.583C67.3337 177.447 67.1323 177.379 66.8622 177.379C66.5821 177.379 66.3626 177.44 66.2035 177.563C66.0444 177.686 65.9325 177.817 65.8679 177.956L65.3111 177.757C65.4105 177.525 65.5431 177.344 65.7088 177.215C65.8762 177.084 66.0585 176.993 66.2557 176.942C66.4545 176.889 66.6501 176.862 66.8423 176.862C66.965 176.862 67.1058 176.877 67.2649 176.907C67.4257 176.935 67.5806 176.994 67.7298 177.083C67.8806 177.173 68.0057 177.308 68.1051 177.489C68.2045 177.669 68.2543 177.911 68.2543 178.214V180.73H67.6676V180.213H67.6378C67.598 180.296 67.5317 180.384 67.4389 180.479C67.3461 180.573 67.2227 180.654 67.0685 180.72C66.9144 180.786 66.7263 180.819 66.5043 180.819ZM66.5938 180.292C66.8258 180.292 67.0213 180.247 67.1804 180.156C67.3411 180.065 67.4621 179.947 67.5433 179.803C67.6262 179.659 67.6676 179.507 67.6676 179.348V178.811C67.6428 178.841 67.5881 178.868 67.5036 178.893C67.4207 178.916 67.3246 178.937 67.2152 178.955C67.1075 178.972 67.0022 178.987 66.8995 179C66.7984 179.011 66.7164 179.021 66.6534 179.03C66.5009 179.05 66.3584 179.082 66.2259 179.127C66.0949 179.17 65.9889 179.235 65.9077 179.323C65.8281 179.409 65.7884 179.527 65.7884 179.676C65.7884 179.88 65.8638 180.034 66.0146 180.138C66.167 180.241 66.3601 180.292 66.5938 180.292ZM72.3105 176.912L70.8985 180.73H70.3019L68.89 176.912H69.5264L70.5803 179.954H70.6201L71.6741 176.912H72.3105ZM74.5489 180.81C74.181 180.81 73.8637 180.728 73.5969 180.566C73.3317 180.402 73.127 180.173 72.9829 179.88C72.8403 179.585 72.7691 179.242 72.7691 178.851C72.7691 178.46 72.8403 178.115 72.9829 177.817C73.127 177.517 73.3276 177.283 73.5844 177.116C73.843 176.947 74.1446 176.862 74.4893 176.862C74.6881 176.862 74.8845 176.895 75.0784 176.962C75.2723 177.028 75.4488 177.136 75.6079 177.285C75.767 177.432 75.8937 177.628 75.9882 177.871C76.0827 178.115 76.1299 178.415 76.1299 178.771V179.02H73.1867V178.513H75.5333C75.5333 178.297 75.4902 178.105 75.404 177.936C75.3195 177.767 75.1985 177.634 75.0411 177.536C74.8853 177.438 74.7014 177.389 74.4893 177.389C74.2556 177.389 74.0534 177.447 73.8827 177.563C73.7137 177.677 73.5836 177.827 73.4925 178.011C73.4013 178.194 73.3557 178.392 73.3557 178.602V178.94C73.3557 179.229 73.4055 179.473 73.5049 179.674C73.606 179.872 73.746 180.024 73.925 180.128C74.104 180.231 74.3119 180.283 74.5489 180.283C74.703 180.283 74.8422 180.261 74.9665 180.218C75.0925 180.173 75.201 180.107 75.2922 180.019C75.3833 179.93 75.4537 179.819 75.5035 179.686L76.0702 179.845C76.0106 180.037 75.9103 180.206 75.7694 180.352C75.6286 180.496 75.4546 180.609 75.2474 180.69C75.0403 180.77 74.8074 180.81 74.5489 180.81ZM79.5777 178.433V180.73H78.991V176.912H79.5578V177.508H79.6075C79.697 177.315 79.8329 177.159 80.0152 177.041C80.1975 176.922 80.4328 176.862 80.7211 176.862C80.9797 176.862 81.2059 176.915 81.3998 177.021C81.5937 177.126 81.7445 177.285 81.8522 177.498C81.9599 177.711 82.0138 177.979 82.0138 178.304V180.73H81.4271V178.344C81.4271 178.044 81.3492 177.81 81.1934 177.643C81.0377 177.474 80.8239 177.389 80.5521 177.389C80.3648 177.389 80.1975 177.43 80.05 177.511C79.9041 177.592 79.789 177.711 79.7045 177.866C79.6199 178.022 79.5777 178.211 79.5777 178.433ZM84.6369 180.81C84.2922 180.81 83.9898 180.728 83.7296 180.563C83.4711 180.399 83.2689 180.17 83.123 179.875C82.9789 179.58 82.9068 179.235 82.9068 178.841C82.9068 178.443 82.9789 178.096 83.123 177.799C83.2689 177.503 83.4711 177.272 83.7296 177.108C83.9898 176.944 84.2922 176.862 84.6369 176.862C84.9816 176.862 85.2832 176.944 85.5417 177.108C85.8019 177.272 86.0041 177.503 86.1483 177.799C86.2941 178.096 86.367 178.443 86.367 178.841C86.367 179.235 86.2941 179.58 86.1483 179.875C86.0041 180.17 85.8019 180.399 85.5417 180.563C85.2832 180.728 84.9816 180.81 84.6369 180.81ZM84.6369 180.283C84.8987 180.283 85.1142 180.215 85.2832 180.081C85.4522 179.947 85.5774 179.77 85.6586 179.552C85.7398 179.333 85.7804 179.096 85.7804 178.841C85.7804 178.586 85.7398 178.348 85.6586 178.127C85.5774 177.907 85.4522 177.729 85.2832 177.593C85.1142 177.457 84.8987 177.389 84.6369 177.389C84.3751 177.389 84.1596 177.457 83.9906 177.593C83.8216 177.729 83.6964 177.907 83.6152 178.127C83.534 178.348 83.4934 178.586 83.4934 178.841C83.4934 179.096 83.534 179.333 83.6152 179.552C83.6964 179.77 83.8216 179.947 83.9906 180.081C84.1596 180.215 84.3751 180.283 84.6369 180.283ZM89.2313 180.73V176.912H89.798V177.508H89.8477C89.9273 177.305 90.0557 177.146 90.233 177.034C90.4104 176.919 90.6233 176.862 90.8719 176.862C91.1238 176.862 91.3334 176.919 91.5008 177.034C91.6698 177.146 91.8016 177.305 91.896 177.508H91.9358C92.0336 177.311 92.1802 177.155 92.3758 177.039C92.5713 176.921 92.8058 176.862 93.0793 176.862C93.4207 176.862 93.6999 176.969 93.917 177.183C94.1341 177.395 94.2426 177.725 94.2426 178.175V180.73H93.656V178.175C93.656 177.893 93.5789 177.692 93.4248 177.571C93.2707 177.45 93.0892 177.389 92.8804 177.389C92.6119 177.389 92.404 177.47 92.2565 177.633C92.109 177.793 92.0352 177.997 92.0352 178.244V180.73H91.4387V178.115C91.4387 177.898 91.3682 177.723 91.2274 177.59C91.0865 177.456 90.905 177.389 90.683 177.389C90.5305 177.389 90.388 177.43 90.2554 177.511C90.1245 177.592 90.0184 177.705 89.9372 177.849C89.8577 177.991 89.8179 178.156 89.8179 178.344V180.73H89.2313ZM96.9161 180.81C96.5482 180.81 96.2309 180.728 95.964 180.566C95.6989 180.402 95.4942 180.173 95.3501 179.88C95.2075 179.585 95.1363 179.242 95.1363 178.851C95.1363 178.46 95.2075 178.115 95.3501 177.817C95.4942 177.517 95.6948 177.283 95.9516 177.116C96.2101 176.947 96.5117 176.862 96.8564 176.862C97.0553 176.862 97.2517 176.895 97.4456 176.962C97.6395 177.028 97.816 177.136 97.9751 177.285C98.1341 177.432 98.2609 177.628 98.3554 177.871C98.4498 178.115 98.4971 178.415 98.4971 178.771V179.02H95.5539V178.513H97.9005C97.9005 178.297 97.8574 178.105 97.7712 177.936C97.6867 177.767 97.5657 177.634 97.4083 177.536C97.2525 177.438 97.0686 177.389 96.8564 177.389C96.6228 177.389 96.4206 177.447 96.2499 177.563C96.0809 177.677 95.9508 177.827 95.8596 178.011C95.7685 178.194 95.7229 178.392 95.7229 178.602V178.94C95.7229 179.229 95.7726 179.473 95.8721 179.674C95.9732 179.872 96.1132 180.024 96.2922 180.128C96.4711 180.231 96.6791 180.283 96.9161 180.283C97.0702 180.283 97.2094 180.261 97.3337 180.218C97.4597 180.173 97.5682 180.107 97.6594 180.019C97.7505 179.93 97.8209 179.819 97.8706 179.686L98.4374 179.845C98.3778 180.037 98.2775 180.206 98.1366 180.352C97.9958 180.496 97.8218 180.609 97.6146 180.69C97.4075 180.77 97.1746 180.81 96.9161 180.81ZM100.831 180.81C100.513 180.81 100.232 180.729 99.9885 180.568C99.7449 180.406 99.5544 180.177 99.4168 179.882C99.2793 179.586 99.2105 179.235 99.2105 178.831C99.2105 178.43 99.2793 178.082 99.4168 177.787C99.5544 177.492 99.7458 177.264 99.991 177.103C100.236 176.942 100.52 176.862 100.841 176.862C101.09 176.862 101.286 176.904 101.43 176.986C101.576 177.068 101.687 177.16 101.763 177.265C101.841 177.368 101.902 177.452 101.945 177.518H101.995V175.639H102.581V180.73H102.014V180.143H101.945C101.902 180.213 101.84 180.301 101.761 180.407C101.681 180.511 101.568 180.605 101.42 180.688C101.273 180.769 101.076 180.81 100.831 180.81ZM100.911 180.283C101.146 180.283 101.345 180.221 101.507 180.099C101.67 179.974 101.793 179.803 101.878 179.584C101.962 179.364 102.005 179.109 102.005 178.821C102.005 178.536 101.963 178.286 101.88 178.073C101.797 177.857 101.675 177.69 101.512 177.571C101.35 177.45 101.149 177.389 100.911 177.389C100.662 177.389 100.455 177.453 100.289 177.58C100.125 177.706 100.002 177.878 99.9189 178.095C99.8377 178.31 99.7971 178.552 99.7971 178.821C99.7971 179.093 99.8386 179.34 99.9214 179.562C100.006 179.782 100.13 179.958 100.294 180.089C100.46 180.218 100.666 180.283 100.911 180.283ZM103.737 180.73V176.912H104.324V180.73H103.737ZM104.035 176.275C103.921 176.275 103.822 176.237 103.74 176.159C103.658 176.081 103.618 175.987 103.618 175.878C103.618 175.768 103.658 175.675 103.74 175.597C103.822 175.519 103.921 175.48 104.035 175.48C104.15 175.48 104.248 175.519 104.329 175.597C104.412 175.675 104.453 175.768 104.453 175.878C104.453 175.987 104.412 176.081 104.329 176.159C104.248 176.237 104.15 176.275 104.035 176.275ZM106.522 180.819C106.28 180.819 106.06 180.774 105.863 180.683C105.666 180.59 105.509 180.457 105.393 180.283C105.277 180.107 105.219 179.895 105.219 179.646C105.219 179.427 105.262 179.25 105.349 179.114C105.435 178.977 105.55 178.869 105.694 178.791C105.838 178.713 105.997 178.655 106.171 178.617C106.347 178.577 106.523 178.546 106.701 178.523C106.933 178.493 107.121 178.47 107.265 178.455C107.411 178.439 107.517 178.412 107.583 178.373C107.651 178.335 107.685 178.269 107.685 178.175V178.155C107.685 177.909 107.618 177.719 107.484 177.583C107.351 177.447 107.15 177.379 106.88 177.379C106.6 177.379 106.38 177.44 106.221 177.563C106.062 177.686 105.95 177.817 105.885 177.956L105.329 177.757C105.428 177.525 105.561 177.344 105.726 177.215C105.894 177.084 106.076 176.993 106.273 176.942C106.472 176.889 106.668 176.862 106.86 176.862C106.983 176.862 107.123 176.877 107.282 176.907C107.443 176.935 107.598 176.994 107.747 177.083C107.898 177.173 108.023 177.308 108.123 177.489C108.222 177.669 108.272 177.911 108.272 178.214V180.73H107.685V180.213H107.655C107.616 180.296 107.549 180.384 107.456 180.479C107.364 180.573 107.24 180.654 107.086 180.72C106.932 180.786 106.744 180.819 106.522 180.819ZM106.611 180.292C106.843 180.292 107.039 180.247 107.198 180.156C107.359 180.065 107.48 179.947 107.561 179.803C107.644 179.659 107.685 179.507 107.685 179.348V178.811C107.66 178.841 107.606 178.868 107.521 178.893C107.438 178.916 107.342 178.937 107.233 178.955C107.125 178.972 107.02 178.987 106.917 179C106.816 179.011 106.734 179.021 106.671 179.03C106.519 179.05 106.376 179.082 106.243 179.127C106.113 179.17 106.006 179.235 105.925 179.323C105.846 179.409 105.806 179.527 105.806 179.676C105.806 179.88 105.881 180.034 106.032 180.138C106.185 180.241 106.378 180.292 106.611 180.292ZM109.86 175.639V176.087C109.86 176.222 109.835 176.367 109.785 176.522C109.737 176.674 109.666 176.822 109.571 176.967C109.478 177.109 109.366 177.233 109.233 177.339L108.915 177.081C109.019 176.932 109.11 176.777 109.186 176.616C109.264 176.454 109.303 176.28 109.303 176.096V175.639H109.86ZM112.799 177.767L112.272 177.916C112.239 177.828 112.19 177.743 112.125 177.66C112.062 177.576 111.976 177.506 111.867 177.451C111.758 177.397 111.618 177.369 111.447 177.369C111.213 177.369 111.018 177.423 110.863 177.531C110.709 177.637 110.631 177.772 110.631 177.936C110.631 178.082 110.685 178.197 110.791 178.281C110.897 178.366 111.062 178.436 111.288 178.493L111.854 178.632C112.196 178.715 112.45 178.842 112.618 179.012C112.785 179.181 112.869 179.399 112.869 179.666C112.869 179.885 112.806 180.08 112.68 180.253C112.555 180.425 112.381 180.561 112.158 180.66C111.934 180.76 111.674 180.81 111.377 180.81C110.988 180.81 110.665 180.725 110.41 180.556C110.155 180.387 109.993 180.14 109.926 179.815L110.482 179.676C110.535 179.882 110.636 180.036 110.783 180.138C110.932 180.241 111.127 180.292 111.367 180.292C111.641 180.292 111.858 180.234 112.019 180.118C112.181 180.001 112.262 179.86 112.262 179.696C112.262 179.563 112.216 179.452 112.123 179.363C112.03 179.272 111.888 179.204 111.695 179.159L111.059 179.01C110.709 178.927 110.453 178.799 110.288 178.625C110.126 178.449 110.045 178.229 110.045 177.966C110.045 177.75 110.105 177.56 110.226 177.394C110.349 177.228 110.515 177.098 110.726 177.004C110.938 176.909 111.178 176.862 111.447 176.862C111.825 176.862 112.121 176.945 112.337 177.111C112.554 177.276 112.708 177.495 112.799 177.767ZM116.098 182.162C115.999 182.162 115.91 182.154 115.832 182.137C115.754 182.122 115.701 182.107 115.671 182.092L115.82 181.575C115.962 181.612 116.088 181.625 116.198 181.615C116.307 181.605 116.404 181.556 116.489 181.468C116.575 181.382 116.654 181.242 116.725 181.048L116.834 180.75L115.422 176.912H116.059L117.113 179.954H117.152L118.206 176.912H118.843L117.222 181.287C117.149 181.484 117.059 181.647 116.951 181.777C116.843 181.907 116.718 182.004 116.576 182.067C116.435 182.13 116.276 182.162 116.098 182.162ZM121.081 180.81C120.713 180.81 120.396 180.728 120.129 180.566C119.864 180.402 119.659 180.173 119.515 179.88C119.373 179.585 119.301 179.242 119.301 178.851C119.301 178.46 119.373 178.115 119.515 177.817C119.659 177.517 119.86 177.283 120.117 177.116C120.375 176.947 120.677 176.862 121.021 176.862C121.22 176.862 121.417 176.895 121.611 176.962C121.805 177.028 121.981 177.136 122.14 177.285C122.299 177.432 122.426 177.628 122.52 177.871C122.615 178.115 122.662 178.415 122.662 178.771V179.02H119.719V178.513H122.066C122.066 178.297 122.022 178.105 121.936 177.936C121.852 177.767 121.731 177.634 121.573 177.536C121.418 177.438 121.234 177.389 121.021 177.389C120.788 177.389 120.586 177.447 120.415 177.563C120.246 177.677 120.116 177.827 120.025 178.011C119.934 178.194 119.888 178.392 119.888 178.602V178.94C119.888 179.229 119.938 179.473 120.037 179.674C120.138 179.872 120.278 180.024 120.457 180.128C120.636 180.231 120.844 180.283 121.081 180.283C121.235 180.283 121.374 180.261 121.499 180.218C121.625 180.173 121.733 180.107 121.824 180.019C121.916 179.93 121.986 179.819 122.036 179.686L122.602 179.845C122.543 180.037 122.443 180.206 122.302 180.352C122.161 180.496 121.987 180.609 121.78 180.69C121.573 180.77 121.34 180.81 121.081 180.81ZM125.215 176.912V177.409H123.236V176.912H125.215ZM123.813 175.997H124.4V179.636C124.4 179.802 124.424 179.926 124.472 180.009C124.521 180.09 124.584 180.145 124.661 180.173C124.739 180.2 124.821 180.213 124.907 180.213C124.971 180.213 125.024 180.21 125.066 180.203C125.107 180.195 125.14 180.188 125.165 180.183L125.285 180.71C125.245 180.725 125.189 180.74 125.118 180.755C125.047 180.771 124.956 180.78 124.847 180.78C124.681 180.78 124.519 180.744 124.36 180.673C124.202 180.602 124.072 180.493 123.967 180.347C123.864 180.201 123.813 180.017 123.813 179.795V175.997Z" fill="#A0A0A0"/>
</g>
<defs>
<clipPath id="clip0_2002_2">
<rect width="170.35" height="215.38" fill="white"/>
</clipPath>
</defs>
</svg>
